{
  "accessors": [
    {
      "bufferView": 2,
      "componentType": 5126,
      "count": 24308,
      "max": [
        0.03242189809679985,
        -0.0031742036808282137,
        0.06372160464525223
      ],
      "min": [
        -0.037559010088443756,
        -0.5148289203643799,
        -0.0520508699119091
      ],
      "type": "VEC3"
    },
    {
      "bufferView": 2,
      "byteOffset": 291696,
      "componentType": 5126,
      "count": 24308,
      "max": [
        1.0,
        1.0,
        1.0
      ],
      "min": [
        -1.0,
        -1.0,
        -1.0
      ],
      "type": "VEC3"
    },
    {
      "bufferView": 3,
      "componentType": 5126,
      "count": 24308,
      "max": [
        1.0,
        1.0,
        1.0,
        1.0
      ],
      "min": [
        -1.0,
        -1.0,
        -1.0,
        -1.0
      ],
      "type": "VEC4"
    },
    {
      "bufferView": 1,
      "componentType": 5126,
      "count": 24308,
      "max": [
        1.9989060163497925,
        0.9989200234413147
      ],
      "min": [
        0.0002699999895412475,
        0.0002699999895412475
      ],
      "type": "VEC2"
    },
    {
      "bufferView": 0,
      "componentType": 5125,
      "count": 66444,
      "type": "SCALAR"
    },
    {
      "bufferView": 2,
      "byteOffset": 583392,
      "componentType": 5126,
      "count": 11176,
      "max": [
        0.024069981649518013,
        0.24674761295318604,
        0.018690792843699455
      ],
      "min": [
        -0.02407000958919525,
        -0.19554193317890167,
        -0.15349219739437103
      ],
      "type": "VEC3"
    },
    {
      "bufferView": 2,
      "byteOffset": 717504,
      "componentType": 5126,
      "count": 11176,
      "max": [
        1.0,
        1.0,
        1.0
      ],
      "min": [
        -1.0,
        -1.0,
        -1.0
      ],
      "type": "VEC3"
    },
    {
      "bufferView": 3,
      "byteOffset": 388928,
      "componentType": 5126,
      "count": 11176,
      "max": [
        1.0,
        1.0,
        1.0,
        1.0
      ],
      "min": [
        -1.0,
        -1.0,
        -1.0,
        -1.0
      ],
      "type": "VEC4"
    },
    {
      "bufferView": 1,
      "byteOffset": 194464,
      "componentType": 5126,
      "count": 11176,
      "max": [
        1.9988789558410645,
        0.9988700151443481
      ],
      "min": [
        0.00027600000612437725,
        0.00027600000612437725
      ],
      "type": "VEC2"
    },
    {
      "bufferView": 0,
      "byteOffset": 265776,
      "componentType": 5125,
      "count": 33696,
      "type": "SCALAR"
    },
    {
      "bufferView": 2,
      "byteOffset": 851616,
      "componentType": 5126,
      "count": 4071,
      "max": [
        0.01263510249555111,
        -0.11568304896354675,
        0.004292743280529976
      ],
      "min": [
        -0.012574004009366035,
        -0.2057538777589798,
        -0.19728121161460876
      ],
      "type": "VEC3"
    },
    {
      "bufferView": 2,
      "byteOffset": 900468,
      "componentType": 5126,
      "count": 4071,
      "max": [
        1.0,
        1.0,
        1.0
      ],
      "min": [
        -1.0,
        -1.0,
        -1.0
      ],
      "type": "VEC3"
    },
    {
      "bufferView": 3,
      "byteOffset": 567744,
      "componentType": 5126,
      "count": 4071,
      "max": [
        1.0,
        1.0,
        1.0,
        1.0
      ],
      "min": [
        -1.0,
        -1.0,
        -1.0,
        -1.0
      ],
      "type": "VEC4"
    },
    {
      "bufferView": 1,
      "byteOffset": 283872,
      "componentType": 5126,
      "count": 4071,
      "max": [
        1.99795401096344,
        0.9979619979858398
      ],
      "min": [
        0.0,
        -0.001462999964132905
      ],
      "type": "VEC2"
    },
    {
      "bufferView": 0,
      "byteOffset": 400560,
      "componentType": 5125,
      "count": 11931,
      "type": "SCALAR"
    },
    {
      "bufferView": 2,
      "byteOffset": 949320,
      "componentType": 5126,
      "count": 3826,
      "max": [
        0.017945999279618263,
        -0.12054013460874557,
        0.09221464395523071
      ],
      "min": [
        -0.019050998613238335,
        -0.18649911880493164,
        0.022307639941573143
      ],
      "type": "VEC3"
    },
    {
      "bufferView": 2,
      "byteOffset": 995232,
      "componentType": 5126,
      "count": 3826,
      "max": [
        1.0,
        1.0,
        1.0
      ],
      "min": [
        -1.0,
        -1.0,
        -1.0
      ],
      "type": "VEC3"
    },
    {
      "bufferView": 3,
      "byteOffset": 632880,
      "componentType": 5126,
      "count": 3826,
      "max": [
        1.0,
        1.0,
        1.0,
        1.0
      ],
      "min": [
        -1.0,
        -1.0,
        -1.0,
        -1.0
      ],
      "type": "VEC4"
    },
    {
      "bufferView": 1,
      "byteOffset": 316440,
      "componentType": 5126,
      "count": 3826,
      "max": [
        1.9933829307556152,
        0.9979239702224731
      ],
      "min": [
        0.0004980000085197389,
        0.0004980000085197389
      ],
      "type": "VEC2"
    },
    {
      "bufferView": 0,
      "byteOffset": 448284,
      "componentType": 5125,
      "count": 12648,
      "type": "SCALAR"
    }
  ],
  "asset": {
    "extras": {
      "author": "AlexFinsher (https://sketchfab.com/AlexFinsher)",
      "license": "CC-BY-4.0 (http://creativecommons.org/licenses/by/4.0/)",
      "source": "https://sketchfab.com/3d-models/slr-ar-15-429b6ef8516b46dca8992e78c4bf7a55",
      "title": "SLR AR-15"
    },
    "generator": "Sketchfab-12.68.0",
    "version": "2.0"
  },
  "bufferViews": [
    {
      "buffer": 0,
      "byteLength": 498876,
      "name": "floatBufferViews",
      "target": 34963
    },
    {
      "buffer": 0,
      "byteLength": 347048,
      "byteOffset": 498876,
      "byteStride": 8,
      "name": "floatBufferViews",
      "target": 34962
    },
    {
      "buffer": 0,
      "byteLength": 1041144,
      "byteOffset": 845924,
      "byteStride": 12,
      "name": "floatBufferViews",
      "target": 34962
    },
    {
      "buffer": 0,
      "byteLength": 694096,
      "byteOffset": 1887068,
      "byteStride": 16,
      "name": "floatBufferViews",
      "target": 34962
    }
  ],
  "buffers": [
    {
      "byteLength": 2581164,
      "uri": "scene.bin"
    }
  ],
  "images": [
    {
      "uri": "textures/UpperReciever_baseColor.jpeg"
    },
    {
      "uri": "textures/UpperReciever_metallicRoughness.png"
    },
    {
      "uri": "textures/UpperReciever_normal.png"
    },
    {
      "uri": "textures/None.002_baseColor.jpeg"
    },
    {
      "uri": "textures/None.002_metallicRoughness.png"
    },
    {
      "uri": "textures/None.002_normal.png"
    },
    {
      "uri": "textures/None.003_baseColor.jpeg"
    },
    {
      "uri": "textures/None.003_metallicRoughness.png"
    },
    {
      "uri": "textures/None.003_normal.png"
    },
    {
      "uri": "textures/TT_checker_1024x1024_UV_GRID.001_baseColor.jpeg"
    },
    {
      "uri": "textures/TT_checker_1024x1024_UV_GRID.001_metallicRoughness.png"
    },
    {
      "uri": "textures/TT_checker_1024x1024_UV_GRID.001_normal.png"
    }
  ],
  "materials": [
    {
      "doubleSided": true,
      "name": "UpperReciever",
      "normalTexture": {
        "index": 2
      },
      "occlusionTexture": {
        "index": 1
      },
      "pbrMetallicRoughness": {
        "baseColorTexture": {
          "index": 0
        },
        "metallicRoughnessTexture": {
          "index": 1
        }
      }
    },
    {
      "doubleSided": true,
      "name": "None.002",
      "normalTexture": {
        "index": 5
      },
      "occlusionTexture": {
        "index": 4
      },
      "pbrMetallicRoughness": {
        "baseColorTexture": {
          "index": 3
        },
        "metallicRoughnessTexture": {
          "index": 4
        }
      }
    },
    {
      "doubleSided": true,
      "name": "None.003",
      "normalTexture": {
        "index": 8
      },
      "occlusionTexture": {
        "index": 7
      },
      "pbrMetallicRoughness": {
        "baseColorTexture": {
          "index": 6
        },
        "metallicRoughnessTexture": {
          "index": 7
        }
      }
    },
    {
      "doubleSided": true,
      "name": "TT_checker_1024x1024_UV_GRID.001",
      "normalTexture": {
        "index": 11
      },
      "occlusionTexture": {
        "index": 10
      },
      "pbrMetallicRoughness": {
        "baseColorTexture": {
          "index": 9
        },
        "metallicRoughnessTexture": {
          "index": 10
        }
      }
    }
  ],
  "meshes": [
    {
      "name": "UpperReciever_low_UpperReciever_0",
      "primitives": [
        {
          "attributes": {
            "NORMAL": 1,
            "POSITION": 0,
            "TANGENT": 2,
            "TEXCOORD_0": 3
          },
          "indices": 4,
          "material": 0,
          "mode": 4
        }
      ]
    },
    {
      "name": "UpperReciever_low_None.002_0",
      "primitives": [
        {
          "attributes": {
            "NORMAL": 6,
            "POSITION": 5,
            "TANGENT": 7,
            "TEXCOORD_0": 8
          },
          "indices": 9,
          "material": 1,
          "mode": 4
        }
      ]
    },
    {
      "name": "UpperReciever_low_None.003_0",
      "primitives": [
        {
          "attributes": {
            "NORMAL": 11,
            "POSITION": 10,
            "TANGENT": 12,
            "TEXCOORD_0": 13
          },
          "indices": 14,
          "material": 2,
          "mode": 4
        }
      ]
    },
    {
      "name": "UpperReciever_low_TT_checker_1024x1024_UV_GRID.001_0",
      "primitives": [
        {
          "attributes": {
            "NORMAL": 16,
            "POSITION": 15,
            "TANGENT": 17,
            "TEXCOORD_0": 18
          },
          "indices": 19,
          "material": 3,
          "mode": 4
        }
      ]
    }
  ],
  "nodes": [
    {
      "children": [
        1
      ],
      "matrix": [
        1.0,
        0.0,
        0.0,
        0.0,
        0.0,
        2.220446049250313e-16,
        -1.0,
        0.0,
        0.0,
        1.0,
        2.220446049250313e-16,
        0.0,
        0.0,
        0.0,
        0.0,
        1.0
      ],
      "name": "Sketchfab_model"
    },
    {
      "children": [
        2
      ],
      "matrix": [
        0.009999999776482582,
        0.0,
        0.0,
        0.0,
        0.0,
        0.0,
        0.009999999776482582,
        0.0,
        0.0,
        -0.009999999776482582,
        0.0,
        0.0,
        0.0,
        0.0,
        0.0,
        1.0
      ],
      "name": "ed89976345f94be08e2573c7bd2b252f.fbx"
    },
    {
      "children": [
        3
      ],
      "name": "RootNode"
    },
    {
      "children": [
        4,
        5,
        6,
        7
      ],
      "matrix": [
        100.0,
        0.0,
        0.0,
        0.0,
        0.0,
        -1.6292077883072264e-05,
        -100.00006103515493,
        0.0,
        0.0,
        99.99999999999868,
        -1.629206793918314e-05,
        0.0,
        0.0,
        0.002833828330039978,
        -0.0023204833269119263,
        1.0
      ],
      "name": "UpperReciever_low"
    },
    {
      "mesh": 0,
      "name": "UpperReciever_low_UpperReciever_0"
    },
    {
      "mesh": 1,
      "name": "UpperReciever_low_None.002_0"
    },
    {
      "mesh": 2,
      "name": "UpperReciever_low_None.003_0"
    },
    {
      "mesh": 3,
      "name": "UpperReciever_low_TT_checker_1024x1024_UV_GRID.001_0"
    }
  ],
  "samplers": [
    {
      "magFilter": 9729,
      "minFilter": 9987,
      "wrapS": 10497,
      "wrapT": 10497
    }
  ],
  "scene": 0,
  "scenes": [
    {
      "name": "Sketchfab_Scene",
      "nodes": [
        0
      ]
    }
  ],
  "textures": [
    {
      "sampler": 0,
      "source": 0
    },
    {
      "sampler": 0,
      "source": 1
    },
    {
      "sampler": 0,
      "source": 2
    },
    {
      "sampler": 0,
      "source": 3
    },
    {
      "sampler": 0,
      "source": 4
    },
    {
      "sampler": 0,
      "source": 5
    },
    {
      "sampler": 0,
      "source": 6
    },
    {
      "sampler": 0,
      "source": 7
    },
    {
      "sampler": 0,
      "source": 8
    },
    {
      "sampler": 0,
      "source": 9
    },
    {
      "sampler": 0,
      "source": 10
    },
    {
      "sampler": 0,
      "source": 11
    }
  ]
}
